<svg width="32" height="32" viewBox="0 0 32 32" fill="none" xmlns="http://www.w3.org/2000/svg">
<path d="M29.3444 19.8125C29.7906 19.3144 30.0625 18.6569 30.0625 17.9375C30.0625 16.3869 28.8006 15.125 27.25 15.125H21.7913C22.3319 13.4844 22.5625 11.3075 22.5625 10.3744V9.4375C22.5625 7.37 20.88 5.6875 18.8125 5.6875H17.875C17.445 5.6875 17.07 5.98 16.9656 6.3975L16.455 8.44063C15.7394 11.3019 13.4675 14.4587 11.1163 15.0325C10.7044 13.99 9.6875 13.25 8.5 13.25H2.875C2.3575 13.25 1.9375 13.67 1.9375 14.1875V31.0625C1.9375 31.58 2.3575 32 2.875 32H8.5C9.61812 32 10.5856 31.3444 11.0387 30.3969L14.26 31.4706C15.3131 31.8219 16.4106 32 17.5212 32H25.375C26.9256 32 28.1875 30.7381 28.1875 29.1875C28.1875 28.8219 28.1175 28.4719 27.99 28.1513C29.1825 27.8256 30.0625 26.7325 30.0625 25.4375C30.0625 24.7181 29.7906 24.0606 29.3444 23.5625C29.7906 23.0644 30.0625 22.4069 30.0625 21.6875C30.0625 20.9681 29.7906 20.3106 29.3444 19.8125ZM9.4375 29.1875C9.4375 29.7044 9.01688 30.125 8.5 30.125H3.8125V15.125H8.5C9.01688 15.125 9.4375 15.5456 9.4375 16.0625V29.1875ZM25.375 20.75H27.25C27.7669 20.75 28.1875 21.1706 28.1875 21.6875C28.1875 22.2044 27.7669 22.625 27.25 22.625H25.375C24.8575 22.625 24.4375 23.045 24.4375 23.5625C24.4375 24.08 24.8575 24.5 25.375 24.5H27.25C27.7669 24.5 28.1875 24.9206 28.1875 25.4375C28.1875 25.9544 27.7669 26.375 27.25 26.375H25.375C24.8575 26.375 24.4375 26.795 24.4375 27.3125C24.4375 27.83 24.8575 28.25 25.375 28.25C25.8919 28.25 26.3125 28.6706 26.3125 29.1875C26.3125 29.7044 25.8919 30.125 25.375 30.125H17.5212C16.6125 30.125 15.7144 29.9794 14.8525 29.6919L11.3125 28.5119V16.9112C12.7831 16.6319 14.2225 15.7006 15.5219 14.1763C16.7906 12.6875 17.8194 10.7137 18.2738 8.89563L18.6069 7.5625H18.8125C19.8463 7.5625 20.6875 8.40375 20.6875 9.4375V10.3744C20.6875 11.6331 20.2938 14.0475 19.79 15.125H17.875C17.3575 15.125 16.9375 15.545 16.9375 16.0625C16.9375 16.58 17.3575 17 17.875 17H27.25C27.7669 17 28.1875 17.4206 28.1875 17.9375C28.1875 18.4544 27.7669 18.875 27.25 18.875H25.375C24.8575 18.875 24.4375 19.295 24.4375 19.8125C24.4375 20.33 24.8575 20.75 25.375 20.75Z" fill="black"/>
<path d="M6.625 28.25C7.14277 28.25 7.5625 27.8303 7.5625 27.3125C7.5625 26.7947 7.14277 26.375 6.625 26.375C6.10723 26.375 5.6875 26.7947 5.6875 27.3125C5.6875 27.8303 6.10723 28.25 6.625 28.25Z" fill="black"/>
<path d="M19.75 0C19.2322 0 18.8125 0.41975 18.8125 0.9375V2.875C18.8125 3.39275 19.2322 3.8125 19.75 3.8125C20.2678 3.8125 20.6875 3.39275 20.6875 2.875V0.9375C20.6875 0.41975 20.2678 0 19.75 0Z" fill="black"/>
<path d="M15.7725 4.13425L14.4467 2.80844C14.0807 2.44231 13.487 2.44231 13.1209 2.80844C12.7548 3.17456 12.7548 3.76813 13.1209 4.13425L14.4467 5.46006C14.8128 5.82613 15.4065 5.82619 15.7725 5.46006C16.1387 5.09394 16.1387 4.50038 15.7725 4.13425Z" fill="black"/>
<path d="M26.3791 2.80844C26.013 2.44231 25.4194 2.44231 25.0533 2.80844L23.7275 4.13419C23.3613 4.50031 23.3613 5.09388 23.7275 5.46C24.0935 5.82613 24.6872 5.82619 25.0533 5.46007L26.3791 4.13425C26.7452 3.76813 26.7452 3.17456 26.3791 2.80844Z" fill="black"/>
</svg>
