<svg width="648" height="240" viewBox="0 0 648 240" fill="none" xmlns="http://www.w3.org/2000/svg">
<g opacity="0.3">
<path opacity="0.047619" d="M628.877 237.991H19.123C14.9341 237.991 11.2916 234.52 11.2916 230.137V226.849C11.2916 222.648 14.752 218.995 19.123 218.995H629.059C633.248 218.995 636.89 222.466 636.89 226.849V230.137C636.708 234.52 633.248 237.991 628.877 237.991Z" fill="#FAFAFA"/>
<path opacity="0.095238" d="M628.148 235.799H19.8516C15.4806 235.799 12.0203 232.329 12.0203 227.945V224.84C12.0203 220.457 15.4806 216.986 19.8516 216.986H628.148C632.519 216.986 635.98 220.457 635.98 224.84V227.945C635.98 232.329 632.337 235.799 628.148 235.799Z" fill="#F5F5F6"/>
<path opacity="0.1429" d="M627.238 233.79H20.58C16.209 233.79 12.7487 230.32 12.7487 225.936V223.014C12.7487 218.63 16.209 215.16 20.58 215.16H627.238C631.609 215.16 635.069 218.63 635.069 223.014V225.936C635.251 230.32 631.609 233.79 627.238 233.79Z" fill="#F0F0F1"/>
<path opacity="0.1905" d="M626.509 231.781H21.4909C17.1199 231.781 13.4774 228.31 13.4774 223.744V221.005C13.4774 216.621 16.9378 212.968 21.4909 212.968H626.509C630.88 212.968 634.523 216.438 634.523 221.005V223.744C634.341 228.31 630.88 231.781 626.509 231.781Z" fill="#EBEBED"/>
<path opacity="0.2381" d="M625.781 229.772H22.2193C17.8483 229.772 14.2058 226.119 14.2058 221.735V219.178C14.2058 214.795 17.8483 211.142 22.2193 211.142H625.599C629.97 211.142 633.612 214.795 633.612 219.178V221.735C633.612 226.119 630.152 229.772 625.781 229.772Z" fill="#E6E6E8"/>
<path opacity="0.2857" d="M624.87 227.763H23.1299C18.7589 227.763 15.1165 224.11 15.1165 219.726V217.352C15.1165 212.968 18.7589 209.315 23.1299 209.315H625.052C629.423 209.315 633.066 212.968 633.066 217.352V219.726C632.884 224.11 629.423 227.763 624.87 227.763Z" fill="#E2E2E3"/>
<path opacity="0.3333" d="M624.142 225.753H23.8585C19.3053 225.753 15.6628 222.1 15.6628 217.534V215.16C15.6628 210.594 19.3053 206.941 23.8585 206.941H624.142C628.695 206.941 632.337 210.594 632.337 215.16V217.534C632.155 222.1 628.513 225.753 624.142 225.753Z" fill="#DDDDDF"/>
<path opacity="0.381" d="M623.231 223.744H24.5869C20.0337 223.744 16.3912 220.091 16.3912 215.525V213.333C16.3912 208.767 20.0337 205.114 24.5869 205.114H623.231C627.784 205.114 631.427 208.767 631.427 213.333V215.525C631.427 220.091 627.784 223.744 623.231 223.744Z" fill="#D8D8DA"/>
<path opacity="0.4286" d="M622.503 221.735H25.4974C20.9443 221.735 17.3018 218.082 17.3018 213.516V211.507C17.3018 206.941 20.9443 203.288 25.4974 203.288H622.503C627.056 203.288 630.698 206.941 630.698 211.507V213.516C630.698 217.899 627.056 221.735 622.503 221.735Z" fill="#D3D3D5"/>
<path opacity="0.4762" d="M621.774 219.543H26.2259C21.6728 219.543 17.8481 215.89 17.8481 211.142V209.315C17.8481 204.749 21.4906 200.913 26.2259 200.913H621.592C626.145 200.913 629.97 204.566 629.97 209.315V211.142C629.97 215.89 626.327 219.543 621.774 219.543Z" fill="#CECED1"/>
<path opacity="0.5238" d="M620.863 217.534H26.9543C22.4012 217.534 18.5765 213.699 18.5765 209.132V207.489C18.5765 202.922 22.4012 199.087 26.9543 199.087H620.863C625.416 199.087 629.241 202.922 629.241 207.489V209.132C629.241 213.881 625.416 217.534 620.863 217.534Z" fill="#C9C9CC"/>
<path opacity="0.5714" d="M620.135 215.525H27.8649C23.1297 215.525 19.4872 211.689 19.4872 207.123V205.662C19.4872 200.913 23.3118 197.26 27.8649 197.26H620.135C624.87 197.26 628.512 201.096 628.512 205.662V207.123C628.512 211.689 624.688 215.525 620.135 215.525Z" fill="#C4C4C8"/>
<path opacity="0.619" d="M619.224 213.516H28.5936C23.8583 213.516 20.0337 209.68 20.0337 204.931V203.653C20.0337 198.904 23.8583 195.068 28.5936 195.068H619.224C623.959 195.068 627.784 198.904 627.784 203.653V204.931C627.784 209.68 623.959 213.516 619.224 213.516Z" fill="#BFBFC3"/>
<path opacity="0.6667" d="M618.496 211.507H29.5042C24.769 211.507 20.9443 207.671 20.9443 202.922V201.826C20.9443 197.078 24.769 193.242 29.5042 193.242H618.496C623.231 193.242 627.056 197.078 627.056 201.826V202.922C627.056 207.671 623.231 211.507 618.496 211.507Z" fill="#BABABE"/>
<path opacity="0.7143" d="M617.768 209.498H30.2328C25.4976 209.498 21.673 205.662 21.673 200.913V200C21.673 195.251 25.4976 191.415 30.2328 191.415H617.768C622.503 191.415 626.327 195.251 626.327 200V200.913C626.327 205.662 622.503 209.498 617.768 209.498Z" fill="#B5B5BA"/>
<path opacity="0.7619" d="M616.857 207.489H30.9611C26.2259 207.489 22.2191 203.653 22.2191 198.721V197.991C22.2191 193.242 26.0437 189.224 30.9611 189.224H616.857C621.592 189.224 625.599 193.059 625.599 197.991V198.721C625.599 203.47 621.592 207.489 616.857 207.489Z" fill="#B1B1B5"/>
<path opacity="0.8095" d="M616.128 205.297H31.8718C27.1365 205.297 23.1298 201.461 23.1298 196.53V195.799C23.1298 191.05 26.9544 187.032 31.8718 187.032H616.128C620.863 187.032 624.87 190.867 624.87 195.799V196.53C624.87 201.461 620.863 205.297 616.128 205.297Z" fill="#ACACB0"/>
<path opacity="0.8571" d="M615.217 203.288H32.6004C27.683 203.288 23.8584 199.269 23.8584 194.52V193.973C23.8584 189.041 27.8651 185.205 32.6004 185.205H615.217C620.135 185.205 623.96 189.224 623.96 193.973V194.52C624.142 199.452 620.135 203.288 615.217 203.288Z" fill="#A7A7AC"/>
<path opacity="0.9048" d="M614.489 201.278H33.5109C28.5935 201.278 24.5868 197.26 24.5868 192.329V191.963C24.5868 187.032 28.5935 183.014 33.5109 183.014H614.489C619.406 183.014 623.413 187.032 623.413 191.963V192.329C623.231 197.26 619.406 201.278 614.489 201.278Z" fill="#A2A2A7"/>
<path opacity="0.9524" d="M613.761 199.269H34.2394C29.3221 199.269 25.3153 195.251 25.3153 190.32V190.137C25.3153 185.205 29.3221 181.187 34.2394 181.187H613.761C618.678 181.187 622.685 185.205 622.685 190.137V190.32C622.503 195.251 618.678 199.269 613.761 199.269Z" fill="#9D9DA3"/>
<path d="M612.85 197.26H34.9681C30.0507 197.26 26.0439 193.242 26.0439 188.31C26.0439 183.379 30.0507 179.361 34.9681 179.361H612.85C617.767 179.361 621.774 183.379 621.774 188.31C621.774 193.242 617.767 197.26 612.85 197.26Z" fill="#98989E"/>
</g>
<path d="M612.486 202.922H35.5144C29.8685 202.922 24.5869 199.817 21.855 194.886L2.73189 171.324C1.45702 169.132 0.910645 166.575 0.910645 164.018L12.7488 15.5251C12.7488 6.94064 19.6695 0 28.2294 0H619.771C628.331 0 635.251 6.94064 635.251 15.5251L647.089 163.836C647.089 166.393 646.361 168.95 645.268 171.142L626.145 194.703C623.413 199.817 618.132 202.922 612.486 202.922Z" fill="url(#paint0_linear)"/>
<path d="M612.486 202.922H35.5144C29.8685 202.922 24.5869 199.817 21.855 194.886L2.73189 171.324C1.45702 169.132 0.910645 166.575 0.910645 164.018L12.7488 15.5251C12.7488 6.94064 19.6695 0 28.2294 0H619.771C628.331 0 635.251 6.94064 635.251 15.5251L647.089 163.836C647.089 166.393 646.361 168.95 645.268 171.142L626.145 194.703C623.413 199.817 618.132 202.922 612.486 202.922Z" fill="url(#paint1_linear)"/>
<path opacity="0.9524" d="M612.121 202.557H35.6964C30.0505 202.557 24.7689 199.452 22.037 194.521L3.09603 171.142C1.82115 168.95 1.27478 166.393 1.27478 163.836L13.1129 15.8904C13.1129 7.30588 20.0336 0.365234 28.5935 0.365234H619.589C628.148 0.365234 635.069 7.30588 635.069 15.8904L646.907 163.836C646.907 166.393 646.179 168.95 645.086 171.142L625.963 194.521C623.049 199.452 617.767 202.557 612.121 202.557Z" fill="url(#paint2_linear)"/>
<path opacity="0.9048" d="M611.757 202.374H36.0606C30.4148 202.374 25.1331 199.269 22.5834 194.338L3.46029 170.959C2.18541 168.767 1.63904 166.21 1.63904 163.653L13.4771 16.2557C13.4771 7.67126 20.3979 0.913269 28.9578 0.913269H619.224C627.784 0.913269 634.705 7.85391 634.705 16.2557L646.543 163.653C646.543 166.21 645.815 168.767 644.722 170.959L625.599 194.338C622.685 199.269 617.403 202.374 611.757 202.374Z" fill="url(#paint3_linear)"/>
<path opacity="0.8571" d="M611.393 202.192H36.4251C30.7793 202.192 25.4976 199.087 22.9479 194.155L3.82479 170.776C2.54991 168.584 2.00354 166.027 2.00354 163.47L13.8417 16.621C13.8417 8.21914 20.7624 1.2785 29.3223 1.2785H618.86C627.42 1.2785 634.341 8.21914 634.341 16.621L646.179 163.47C646.179 166.027 645.45 168.584 644.358 170.776L625.235 194.155C622.321 199.087 617.039 202.192 611.393 202.192Z" fill="url(#paint4_linear)"/>
<path opacity="0.8095" d="M611.029 201.827H36.7893C31.1434 201.827 25.8618 198.721 23.312 193.79L4.18892 170.594C2.91405 168.402 2.36768 165.845 2.36768 163.288L14.2058 16.8037C14.2058 8.40188 21.1265 1.46124 29.5043 1.46124H618.314C626.874 1.46124 633.612 8.21923 633.612 16.8037L645.45 163.288C645.45 165.845 644.722 168.402 643.629 170.594L624.688 193.79C621.956 198.721 616.675 201.827 611.029 201.827Z" fill="url(#paint5_linear)"/>
<path opacity="0.7619" d="M610.847 201.644H37.1535C31.5077 201.644 26.4082 198.539 23.6763 193.607L4.73531 170.411C3.46044 168.219 2.91406 165.662 2.91406 163.105L14.5701 17.1689C14.5701 8.76708 21.4908 2.00909 29.8685 2.00909H617.95C626.509 2.00909 633.248 8.76708 633.248 17.1689L645.086 163.105C645.086 165.662 644.54 168.219 643.265 170.411L624.324 193.607C621.592 198.539 616.492 201.644 610.847 201.644Z" fill="url(#paint6_linear)"/>
<path opacity="0.7143" d="M610.482 201.279H37.5178C31.8719 201.279 26.7724 198.174 24.0405 193.242L5.09957 170.228C3.82469 168.037 3.27832 165.48 3.27832 162.922L14.9343 17.5343C14.9343 9.1325 21.855 2.37451 30.2328 2.37451H617.585C626.145 2.37451 632.884 9.1325 632.884 17.5343L644.722 162.922C644.722 165.48 644.175 167.854 642.901 170.228L623.96 193.242C621.228 198.356 616.128 201.279 610.482 201.279Z" fill="url(#paint7_linear)"/>
<path opacity="0.6667" d="M610.118 201.096H37.882C32.2362 201.096 27.1367 197.991 24.4048 193.242L5.46383 170.228C4.18895 168.037 3.64258 165.479 3.64258 163.105L15.2986 17.8996C15.2986 9.49774 22.2193 2.73975 30.597 2.73975H617.221C625.599 2.73975 632.52 9.49774 632.52 17.8996L644.176 162.922C644.176 165.479 643.629 167.854 642.354 170.046L623.413 193.059C620.864 197.991 615.764 201.096 610.118 201.096Z" fill="url(#paint8_linear)"/>
<path opacity="0.619" d="M609.754 200.731H38.2462C32.6003 200.731 27.5008 197.626 24.7689 192.877L5.82796 170.046C4.55309 167.854 4.00671 165.297 4.00671 162.922L15.6627 18.2648C15.6627 9.86297 22.5834 3.10498 30.9612 3.10498H616.857C625.234 3.10498 632.155 9.86297 632.155 18.2648L643.811 162.74C643.811 165.297 643.265 167.671 641.99 169.863L623.049 192.694C620.499 197.808 615.4 200.731 609.754 200.731Z" fill="url(#paint9_linear)"/>
<path opacity="0.5714" d="M609.389 200.548H38.6103C32.9644 200.548 27.8649 197.443 25.1331 192.694L6.1921 169.863C4.91722 167.671 4.37085 165.114 4.37085 162.74L16.0268 18.6301C16.0268 10.4109 22.9476 3.65295 31.3253 3.65295H616.492C624.87 3.65295 631.791 10.4109 631.791 18.6301L643.447 162.74C643.447 165.297 642.9 167.671 641.626 169.863L622.867 192.694C620.135 197.443 615.035 200.548 609.389 200.548Z" fill="url(#paint10_linear)"/>
<path opacity="0.5238" d="M609.025 200.365H38.9748C33.3289 200.365 28.2294 197.26 25.4976 192.511L6.5566 169.68C5.28173 167.489 4.73535 165.114 4.73535 162.557L16.3913 18.9954C16.3913 10.7762 23.3121 4.01819 31.6898 4.01819H616.31C624.688 4.01819 631.609 10.7762 631.609 18.9954L643.265 162.557C643.265 165.114 642.719 167.489 641.444 169.68L622.503 192.511C619.771 197.26 614.671 200.365 609.025 200.365Z" fill="url(#paint11_linear)"/>
<path opacity="0.4762" d="M608.661 200H39.1569C33.5111 200 28.4116 197.078 25.6797 192.146L6.92086 169.498C5.64598 167.306 5.09961 164.932 5.09961 162.374L16.7556 19.3608C16.7556 11.1416 23.6763 4.38361 32.0541 4.38361H615.946C624.324 4.38361 631.245 11.1416 631.245 19.3608L642.901 162.374C642.901 164.932 642.354 167.306 641.079 169.498L622.138 192.146C619.407 197.078 614.307 200 608.661 200Z" fill="url(#paint12_linear)"/>
<path opacity="0.4286" d="M608.297 199.817H39.5211C33.8752 199.817 28.7757 196.895 26.0438 191.963L7.28499 169.315C6.01012 167.123 5.46375 164.749 5.46375 162.192L17.1197 19.5434C17.1197 11.3242 23.8583 4.56622 32.4182 4.56622H615.582C623.96 4.56622 630.88 11.1416 630.88 19.5434L642.536 162.192C642.536 164.749 641.99 167.123 640.715 169.315L621.956 191.963C619.042 196.712 613.943 199.817 608.297 199.817Z" fill="url(#paint13_linear)"/>
<path opacity="0.381" d="M607.932 199.452H39.8853C34.2395 199.452 29.14 196.53 26.5902 191.598L7.64925 169.132C6.37438 166.941 5.828 164.566 5.828 162.009L17.484 20.0913C17.484 11.8722 24.2226 5.29681 32.7825 5.29681H615.217C623.595 5.29681 630.516 11.8722 630.516 20.0913L642.172 162.192C642.172 164.749 641.626 167.123 640.351 169.315L621.41 191.781C618.678 196.53 613.578 199.452 607.932 199.452Z" fill="url(#paint14_linear)"/>
<path opacity="0.3333" d="M607.75 199.269H40.2495C34.6036 199.269 29.5041 196.347 26.9544 191.598L8.01339 169.132C6.73851 166.941 6.19214 164.566 6.19214 162.009L17.8481 20.4566C17.8481 12.2374 24.5867 5.66205 32.9645 5.66205H614.671C623.049 5.66205 629.787 12.2374 629.787 20.4566L641.443 162.009C641.443 164.384 640.897 166.941 639.622 169.132L621.045 191.598C618.314 196.347 613.214 199.269 607.75 199.269Z" fill="url(#paint15_linear)"/>
<path opacity="0.2857" d="M607.386 199.087H40.6139C34.968 199.087 29.8685 196.164 27.3188 191.416L8.5599 168.95C7.28502 166.758 6.73865 164.384 6.73865 162.009L18.2125 20.822C18.2125 12.6028 24.9511 6.02747 33.3289 6.02747H614.307C622.685 6.02747 629.423 12.6028 629.423 20.822L641.079 162.009C641.079 164.384 640.533 166.941 639.258 168.95L620.499 191.416C617.95 195.982 612.85 199.087 607.386 199.087Z" fill="url(#paint16_linear)"/>
<path opacity="0.2381" d="M607.022 198.721H40.978C35.3321 198.721 30.2326 195.799 27.6829 191.05L8.92403 168.767C7.64916 166.575 7.10278 164.201 7.10278 161.826L18.7588 21.1872C18.7588 13.1507 25.4974 6.57532 33.8751 6.57532H614.125C622.503 6.57532 629.241 13.1507 629.241 21.1872L640.897 161.826C640.897 164.201 640.351 166.758 639.076 168.767L620.317 191.05C617.585 195.799 612.486 198.721 607.022 198.721Z" fill="url(#paint17_linear)"/>
<path opacity="0.1905" d="M606.658 198.539H41.3425C35.6966 198.539 30.5971 195.616 28.0474 190.868L9.28853 168.584C8.01366 166.393 7.46729 164.018 7.46729 161.644L19.1233 21.5525C19.1233 13.516 25.8619 6.94067 34.2396 6.94067H613.761C622.138 6.94067 628.877 13.516 628.877 21.5525L640.533 161.644C640.533 164.018 639.987 166.393 638.712 168.584L619.953 190.868C617.221 195.616 612.122 198.539 606.658 198.539Z" fill="url(#paint18_linear)"/>
<path opacity="0.1429" d="M606.294 198.173H41.7066C36.0608 198.173 30.9613 195.251 28.4115 190.502L9.65267 168.402C8.3778 166.21 7.83142 163.836 7.83142 161.461L19.4874 21.7352C19.4874 13.6986 26.226 7.12329 34.6038 7.12329H613.579C621.956 7.12329 628.695 13.6986 628.695 21.7352L640.351 161.461C640.351 163.836 639.805 166.21 638.53 168.402L619.771 190.502C617.039 195.251 611.757 198.173 606.294 198.173Z" fill="url(#paint19_linear)"/>
<path opacity="0.095238" d="M605.929 197.991H42.0709C36.6071 197.991 31.5077 195.068 28.7758 190.32L10.0169 168.219C8.74205 166.027 8.19568 163.653 8.19568 161.278L19.8517 22.1004C19.8517 14.0639 26.5903 7.48853 34.968 7.48853H613.214C621.592 7.48853 628.331 14.0639 628.331 22.1004L639.987 161.278C639.987 163.653 639.44 166.027 638.165 168.219L619.224 190.32C616.675 195.068 611.575 197.991 605.929 197.991Z" fill="url(#paint20_linear)"/>
<path opacity="0.047619" d="M605.565 197.626H42.2529C36.7892 197.626 31.6897 194.703 28.9578 189.954L10.3811 168.037C9.10619 165.845 8.55981 163.47 8.55981 161.096L20.0337 22.2832C20.0337 14.2466 26.7723 7.85394 35.15 7.85394H612.668C621.045 7.85394 627.784 14.4293 627.784 22.2832L639.258 161.096C639.258 163.47 638.712 165.845 637.437 168.037L618.678 189.954C616.31 194.703 611.211 197.626 605.565 197.626Z" fill="url(#paint21_linear)"/>
<path d="M589.306 28.2861H58.5022V36.3588H589.306V28.2861Z" fill="url(#paint22_linear)"/>
<path d="M590.839 42.4133H56.97V50.486H590.839V42.4133Z" fill="url(#paint23_linear)"/>
<path d="M592.371 56.6957H55.4377V64.7684H592.371V56.6957Z" fill="url(#paint24_linear)"/>
<path d="M594.095 70.9782H53.905V79.0509H594.095V70.9782Z" fill="url(#paint25_linear)"/>
<path d="M595.627 85.2606H52.3726V93.3333H595.627V85.2606Z" fill="url(#paint26_linear)"/>
<path d="M647.636 172.055H0.182125C0 172.055 0 171.872 0 171.872L0.182125 171.69H647.636C647.818 171.69 647.818 171.872 647.818 171.872C648 172.055 647.818 172.055 647.636 172.055Z" fill="white"/>
<path d="M644.638 171.507H3.18044C3 171.507 3 171.324 3 171.324C3 171.141 3.18044 171.141 3.18044 171.141H644.638C644.819 171.141 644.819 171.324 644.819 171.324C644.999 171.324 644.819 171.507 644.638 171.507Z" fill="#6D7C73"/>
<path opacity="0.5" d="M103.791 157.333C101.119 157.333 98.8929 156.173 98.0023 154.239C96.2211 148.05 101.565 115.943 103.346 109.754C103.791 108.207 106.463 106.659 109.135 106.659H538.844C541.516 106.659 543.742 107.82 544.633 109.754C546.414 115.943 552.203 148.05 549.977 154.239C549.531 155.786 546.859 157.333 544.188 157.333H103.791Z" fill="white"/>
<path d="M103.791 155.563C101.119 155.563 98.8929 154.402 98.0023 152.468C96.2211 146.279 101.565 114.173 103.346 107.983C103.791 106.436 106.463 104.889 109.135 104.889H538.844C541.516 104.889 543.742 106.049 544.633 107.983C546.414 114.173 552.203 146.279 549.977 152.468C549.531 154.016 546.859 155.563 544.188 155.563H103.791Z" fill="#A9B8AE"/>
<path d="M605.565 180.274H324H42.4352C42.4352 180.274 41.7067 181.187 51.1772 192.511C60.4655 203.836 61.194 202.922 61.194 202.922H324H586.806C586.806 202.922 587.535 203.836 596.823 192.511C606.112 181.187 605.565 180.274 605.565 180.274Z" fill="#1B1F1C"/>
<path d="M605.929 179.361H42.0709L41.8887 179.726C41.5245 180.274 40.796 181.187 50.6307 193.059C55.7302 199.087 58.28 201.827 59.5548 202.922H61.194L60.4655 202.374C60.6476 202.009 61.0118 202.009 61.194 202.009C61.0118 202.009 59.3727 201.096 51.7235 191.781C46.2597 185.205 44.2564 182.1 43.5279 181.005H604.108C603.38 182.283 601.376 185.205 595.912 191.781C588.263 201.096 586.624 201.827 586.442 202.009C586.624 202.009 586.988 202.009 587.17 202.374L586.442 202.922H588.081C589.538 201.827 592.088 199.087 597.005 193.059C606.84 181.187 606.111 180.274 605.747 179.726L605.929 179.361Z" fill="#1B1F1C"/>
<path d="M43.8922 183.196C44.985 184.84 46.9883 187.58 50.2666 191.598H323.818H597.37C600.648 187.58 602.651 184.84 603.744 183.196H324H43.8922Z" fill="url(#paint27_linear)"/>
<path d="M324 194.521H52.8162C60.6475 203.653 61.1939 202.922 61.1939 202.922H324H586.806C586.806 202.922 587.352 203.653 595.184 194.521H324Z" fill="url(#paint28_linear)"/>
<defs>
<linearGradient id="paint0_linear" x1="323.967" y1="-21.2108" x2="323.967" y2="201.29" gradientUnits="userSpaceOnUse">
<stop stop-color="#E3E4E5"/>
<stop offset="0.1546" stop-color="#ECEDEE"/>
<stop offset="0.4804" stop-color="#FAFAFB"/>
<stop offset="0.7632" stop-color="white"/>
<stop offset="0.8056" stop-color="#F8F8F8"/>
<stop offset="0.8689" stop-color="#E3E5E6"/>
<stop offset="0.8973" stop-color="#D8DADB"/>
<stop offset="0.9495" stop-color="#D5D7D8"/>
<stop offset="0.9836" stop-color="#CDCFD0"/>
<stop offset="0.985" stop-color="#CCCECF"/>
</linearGradient>
<linearGradient id="paint1_linear" x1="323.967" y1="-21.2108" x2="323.967" y2="201.29" gradientUnits="userSpaceOnUse">
<stop stop-color="#CECFCF"/>
<stop offset="0.1087" stop-color="#EBEBEB"/>
<stop offset="0.4188" stop-color="#EBEBEB"/>
<stop offset="1" stop-color="#ABACAC"/>
</linearGradient>
<linearGradient id="paint2_linear" x1="323.967" y1="-20.7414" x2="323.967" y2="201.036" gradientUnits="userSpaceOnUse">
<stop stop-color="#D0D1D1"/>
<stop offset="0.1087" stop-color="#ECECEC"/>
<stop offset="0.4188" stop-color="#ECECEC"/>
<stop offset="1" stop-color="#AFB0B0"/>
</linearGradient>
<linearGradient id="paint3_linear" x1="323.967" y1="-20.2729" x2="323.967" y2="200.783" gradientUnits="userSpaceOnUse">
<stop stop-color="#D3D4D4"/>
<stop offset="0.1087" stop-color="#EDEDED"/>
<stop offset="0.4188" stop-color="#EDEDED"/>
<stop offset="1" stop-color="#B3B4B4"/>
</linearGradient>
<linearGradient id="paint4_linear" x1="323.967" y1="-19.8037" x2="323.967" y2="200.529" gradientUnits="userSpaceOnUse">
<stop stop-color="#D5D6D6"/>
<stop offset="0.1087" stop-color="#EEEEEE"/>
<stop offset="0.4188" stop-color="#EEEEEE"/>
<stop offset="1" stop-color="#B7B8B8"/>
</linearGradient>
<linearGradient id="paint5_linear" x1="323.967" y1="-19.3351" x2="323.967" y2="200.275" gradientUnits="userSpaceOnUse">
<stop stop-color="#D7D8D8"/>
<stop offset="0.1087" stop-color="#EFEFEF"/>
<stop offset="0.4188" stop-color="#EFEFEF"/>
<stop offset="1" stop-color="#BBBCBC"/>
</linearGradient>
<linearGradient id="paint6_linear" x1="323.967" y1="-18.8658" x2="323.967" y2="200.021" gradientUnits="userSpaceOnUse">
<stop stop-color="#DADADA"/>
<stop offset="0.1087" stop-color="#F0F0F0"/>
<stop offset="0.4188" stop-color="#F0F0F0"/>
<stop offset="1" stop-color="#BFC0C0"/>
</linearGradient>
<linearGradient id="paint7_linear" x1="323.967" y1="-18.3974" x2="323.967" y2="199.768" gradientUnits="userSpaceOnUse">
<stop stop-color="#DCDDDD"/>
<stop offset="0.1087" stop-color="#F1F1F1"/>
<stop offset="0.4188" stop-color="#F1F1F1"/>
<stop offset="1" stop-color="#C3C4C4"/>
</linearGradient>
<linearGradient id="paint8_linear" x1="323.967" y1="-17.9291" x2="323.967" y2="199.513" gradientUnits="userSpaceOnUse">
<stop stop-color="#DEDFDF"/>
<stop offset="0.1087" stop-color="#F2F2F2"/>
<stop offset="0.4188" stop-color="#F2F2F2"/>
<stop offset="1" stop-color="#C7C8C8"/>
</linearGradient>
<linearGradient id="paint9_linear" x1="323.967" y1="-17.4596" x2="323.967" y2="199.26" gradientUnits="userSpaceOnUse">
<stop stop-color="#E1E1E1"/>
<stop offset="0.1087" stop-color="#F3F3F3"/>
<stop offset="0.4188" stop-color="#F3F3F3"/>
<stop offset="1" stop-color="#CBCCCC"/>
</linearGradient>
<linearGradient id="paint10_linear" x1="323.967" y1="-16.9912" x2="323.967" y2="199.006" gradientUnits="userSpaceOnUse">
<stop stop-color="#E3E4E4"/>
<stop offset="0.1087" stop-color="#F4F4F4"/>
<stop offset="0.4188" stop-color="#F4F4F4"/>
<stop offset="1" stop-color="#CFD0D0"/>
</linearGradient>
<linearGradient id="paint11_linear" x1="323.967" y1="-16.5221" x2="323.967" y2="198.752" gradientUnits="userSpaceOnUse">
<stop stop-color="#E5E6E6"/>
<stop offset="0.1087" stop-color="#F5F5F5"/>
<stop offset="0.4188" stop-color="#F5F5F5"/>
<stop offset="1" stop-color="#D3D4D4"/>
</linearGradient>
<linearGradient id="paint12_linear" x1="323.967" y1="-16.0535" x2="323.967" y2="198.499" gradientUnits="userSpaceOnUse">
<stop stop-color="#E8E8E8"/>
<stop offset="0.1087" stop-color="#F5F5F5"/>
<stop offset="0.4188" stop-color="#F5F5F5"/>
<stop offset="1" stop-color="#D7D7D7"/>
</linearGradient>
<linearGradient id="paint13_linear" x1="323.967" y1="-15.5841" x2="323.967" y2="198.244" gradientUnits="userSpaceOnUse">
<stop stop-color="#EAEAEA"/>
<stop offset="0.1087" stop-color="#F6F6F6"/>
<stop offset="0.4188" stop-color="#F6F6F6"/>
<stop offset="1" stop-color="#DBDBDB"/>
</linearGradient>
<linearGradient id="paint14_linear" x1="323.967" y1="-15.1158" x2="323.967" y2="197.991" gradientUnits="userSpaceOnUse">
<stop stop-color="#ECEDED"/>
<stop offset="0.1087" stop-color="#F7F7F7"/>
<stop offset="0.4188" stop-color="#F7F7F7"/>
<stop offset="1" stop-color="#DFDFDF"/>
</linearGradient>
<linearGradient id="paint15_linear" x1="323.966" y1="-14.6464" x2="323.966" y2="197.737" gradientUnits="userSpaceOnUse">
<stop stop-color="#EFEFEF"/>
<stop offset="0.1087" stop-color="#F8F8F8"/>
<stop offset="0.4188" stop-color="#F8F8F8"/>
<stop offset="1" stop-color="#E3E3E3"/>
</linearGradient>
<linearGradient id="paint16_linear" x1="323.966" y1="-14.1778" x2="323.966" y2="197.483" gradientUnits="userSpaceOnUse">
<stop stop-color="#F1F1F1"/>
<stop offset="0.1087" stop-color="#F9F9F9"/>
<stop offset="0.4188" stop-color="#F9F9F9"/>
<stop offset="1" stop-color="#E7E7E7"/>
</linearGradient>
<linearGradient id="paint17_linear" x1="323.966" y1="-13.7087" x2="323.966" y2="197.23" gradientUnits="userSpaceOnUse">
<stop stop-color="#F3F4F4"/>
<stop offset="0.1087" stop-color="#FAFAFA"/>
<stop offset="0.4188" stop-color="#FAFAFA"/>
<stop offset="1" stop-color="#EBEBEB"/>
</linearGradient>
<linearGradient id="paint18_linear" x1="323.967" y1="-13.2401" x2="323.967" y2="196.975" gradientUnits="userSpaceOnUse">
<stop stop-color="#F6F6F6"/>
<stop offset="0.1087" stop-color="#FBFBFB"/>
<stop offset="0.4188" stop-color="#FBFBFB"/>
<stop offset="1" stop-color="#EFEFEF"/>
</linearGradient>
<linearGradient id="paint19_linear" x1="323.967" y1="-12.7708" x2="323.967" y2="196.722" gradientUnits="userSpaceOnUse">
<stop stop-color="#F8F8F8"/>
<stop offset="0.1087" stop-color="#FCFCFC"/>
<stop offset="0.4188" stop-color="#FCFCFC"/>
<stop offset="1" stop-color="#F3F3F3"/>
</linearGradient>
<linearGradient id="paint20_linear" x1="323.966" y1="-12.3023" x2="323.966" y2="196.468" gradientUnits="userSpaceOnUse">
<stop stop-color="#FAFAFA"/>
<stop offset="0.1087" stop-color="#FDFDFD"/>
<stop offset="0.4188" stop-color="#FDFDFD"/>
<stop offset="1" stop-color="#F7F7F7"/>
</linearGradient>
<linearGradient id="paint21_linear" x1="323.967" y1="-11.8339" x2="323.967" y2="196.214" gradientUnits="userSpaceOnUse">
<stop stop-color="#FDFDFD"/>
<stop offset="0.1087" stop-color="#FEFEFE"/>
<stop offset="0.4188" stop-color="#FEFEFE"/>
<stop offset="1" stop-color="#FBFBFB"/>
</linearGradient>
<linearGradient id="paint22_linear" x1="323.965" y1="36.3357" x2="323.965" y2="28.2338" gradientUnits="userSpaceOnUse">
<stop offset="0.1927" stop-color="white"/>
<stop offset="0.3659" stop-color="#F8F9F9"/>
<stop offset="0.6079" stop-color="#E6E8E8"/>
<stop offset="0.7536" stop-color="#D8DADB"/>
<stop offset="1" stop-color="#A6A7A8"/>
</linearGradient>
<linearGradient id="paint23_linear" x1="323.965" y1="50.5615" x2="323.965" y2="42.4802" gradientUnits="userSpaceOnUse">
<stop offset="0.1927" stop-color="white"/>
<stop offset="0.3659" stop-color="#F8F9F9"/>
<stop offset="0.6079" stop-color="#E6E8E8"/>
<stop offset="0.7536" stop-color="#D8DADB"/>
<stop offset="1" stop-color="#A6A7A8"/>
</linearGradient>
<linearGradient id="paint24_linear" x1="323.965" y1="64.7881" x2="323.965" y2="56.7273" gradientUnits="userSpaceOnUse">
<stop offset="0.1927" stop-color="white"/>
<stop offset="0.3659" stop-color="#F8F9F9"/>
<stop offset="0.6079" stop-color="#E6E8E8"/>
<stop offset="0.7536" stop-color="#D8DADB"/>
<stop offset="1" stop-color="#A6A7A8"/>
</linearGradient>
<linearGradient id="paint25_linear" x1="323.965" y1="79.0149" x2="323.965" y2="70.9737" gradientUnits="userSpaceOnUse">
<stop offset="0.1927" stop-color="white"/>
<stop offset="0.3659" stop-color="#F8F9F9"/>
<stop offset="0.6079" stop-color="#E6E8E8"/>
<stop offset="0.7536" stop-color="#D8DADB"/>
<stop offset="1" stop-color="#A6A7A8"/>
</linearGradient>
<linearGradient id="paint26_linear" x1="323.965" y1="93.2406" x2="323.965" y2="85.2199" gradientUnits="userSpaceOnUse">
<stop offset="0.1927" stop-color="white"/>
<stop offset="0.3659" stop-color="#F8F9F9"/>
<stop offset="0.6079" stop-color="#E6E8E8"/>
<stop offset="0.7536" stop-color="#D8DADB"/>
<stop offset="1" stop-color="#A6A7A8"/>
</linearGradient>
<linearGradient id="paint27_linear" x1="323.967" y1="191.561" x2="323.967" y2="183.144" gradientUnits="userSpaceOnUse">
<stop stop-color="#D8DADB"/>
<stop offset="0.2757" stop-color="#D4D6D7"/>
<stop offset="0.5612" stop-color="#C8C9CA"/>
<stop offset="0.8502" stop-color="#B4B5B6"/>
<stop offset="1" stop-color="#A6A7A8"/>
</linearGradient>
<linearGradient id="paint28_linear" x1="323.967" y1="202.904" x2="323.967" y2="194.488" gradientUnits="userSpaceOnUse">
<stop stop-color="#D8DADB"/>
<stop offset="0.2757" stop-color="#D4D6D7"/>
<stop offset="0.5612" stop-color="#C8C9CA"/>
<stop offset="0.8502" stop-color="#B4B5B6"/>
<stop offset="1" stop-color="#A6A7A8"/>
</linearGradient>
</defs>
</svg>
