<svg width="26" height="30" viewBox="0 0 26 30" fill="none" xmlns="http://www.w3.org/2000/svg">
<path d="M24.5357 16.2653L19.6322 17.9525L17.6551 16.8189V14.9999V13.2073L19.6322 12.0737L24.5357 13.7609C24.8784 13.8927 25.2738 13.6818 25.3793 13.3391C25.5111 12.9964 25.3002 12.6009 24.9575 12.4955L21.1613 11.2037L24.7202 9.14742C25.0366 8.96288 25.142 8.54108 24.9575 8.22473C24.7729 7.90838 24.3511 7.80293 24.0348 7.98746L20.4758 10.0437L21.2404 6.11572C21.3194 5.74664 21.0822 5.40393 20.7131 5.32484C20.344 5.24576 20.0013 5.48302 19.9222 5.8521L18.9205 10.9401L16.9433 12.0737L15.4406 11.2037L15.4142 11.1773L13.8852 10.281V8.01383L17.7869 4.61305C18.0769 4.37579 18.1032 3.95399 17.8396 3.664C17.6023 3.37401 17.1805 3.34765 16.8905 3.61128L13.8852 6.24753V2.08225C13.8852 1.71317 13.5952 1.39682 13.1998 1.39682C12.8307 1.39682 12.5143 1.68681 12.5143 2.08225V6.19481L9.50901 3.58491C9.21903 3.34765 8.79722 3.37401 8.55996 3.63764C8.3227 3.92763 8.34906 4.34943 8.61269 4.58669L12.5143 7.98746V10.2546L10.9853 11.151L9.45629 12.0473L7.4791 10.9137L6.47732 5.82573C6.39823 5.45666 6.05552 5.21939 5.68644 5.29848C5.31736 5.37757 5.0801 5.72028 5.15919 6.08936L5.9237 10.0174L2.36476 7.9611C2.04841 7.77656 1.6266 7.88201 1.44207 8.19836C1.25753 8.51471 1.36298 8.93652 1.67933 9.12105L5.23828 11.1773L1.44207 12.4691C1.09935 12.6009 0.888452 12.97 1.02027 13.3127C1.15208 13.6554 1.52115 13.8663 1.86387 13.7345L6.76731 12.0473L8.7445 13.1809V14.9999V16.7926H8.77086L6.79367 17.9262L1.89023 16.2389C1.54752 16.1071 1.15208 16.318 1.04663 16.6608C0.914815 17.0035 1.12572 17.3989 1.46843 17.5044L5.26464 18.7961L1.70569 20.8524C1.38934 21.0369 1.28389 21.4587 1.46843 21.7751C1.65297 22.0914 2.07477 22.1969 2.39112 22.0124L5.95007 19.9561L5.18555 23.8841C5.10646 24.2532 5.34373 24.5959 5.7128 24.675C6.08188 24.7541 6.42459 24.5168 6.50368 24.1477L7.50546 19.0597L9.48265 17.9262L11.038 18.8225L12.5671 19.7188V21.986L8.66541 25.3868C8.37542 25.624 8.34906 26.0458 8.61269 26.3358C8.84995 26.6258 9.27175 26.6522 9.56174 26.3885L12.5671 23.7523V27.9176C12.5671 28.2866 12.8571 28.603 13.2525 28.603C13.6216 28.603 13.9379 28.313 13.9379 27.9176V23.805L16.9433 26.4413C17.2332 26.6785 17.6551 26.6522 17.8923 26.3885C18.1296 26.0986 18.1032 25.6768 17.8396 25.4395L13.8852 22.0124V19.7452L15.4142 18.8488L16.9433 17.9525L18.9205 19.0861L19.9222 24.1741C20.0013 24.5432 20.344 24.7804 20.7131 24.7013C21.0822 24.6222 21.3194 24.2795 21.2404 23.9105L20.4758 19.9824L24.0348 22.0387C24.3511 22.2233 24.7729 22.1178 24.9575 21.8015C25.142 21.4851 25.0366 21.0633 24.7202 20.8788L21.1613 18.8225L24.9575 17.5307C25.3002 17.3989 25.5111 17.0298 25.3793 16.6871C25.2475 16.3444 24.8784 16.1335 24.5357 16.2653ZM16.2315 14.9999V16.7926L14.7024 17.6889L13.1998 18.5589L11.6444 17.6625L10.1154 16.7662V14.9999V13.2073L11.6444 12.3109L13.1734 11.4146L14.7024 12.3109L14.7288 12.3373L16.2315 13.2073V14.9999Z" fill="white" stroke="white"/>
</svg>
