<svg width="32" height="32" viewBox="0 0 32 32" fill="none" xmlns="http://www.w3.org/2000/svg">
<g clip-path="url(#clip0)">
<path d="M31.6299 20.3933L31.47 19.8992L28.4187 19.135C28.4375 18.8582 28.446 18.5803 28.446 18.2998C28.446 14.7422 26.918 11.3479 24.2539 8.98706L23.0107 10.3897C25.2742 12.395 26.5718 15.2783 26.5718 18.2998C26.5718 18.4241 26.5701 18.5479 26.5649 18.6709L24.5837 18.1748C24.5557 16.23 23.8635 14.3413 22.626 12.8418L21.1802 14.0352C22.0398 15.0759 22.5627 16.3591 22.6841 17.6992L20.6648 17.1939C20.4468 16.273 19.9612 15.4539 19.2952 14.8235L22.3652 4.11328L22.0181 3.72778C20.5298 2.07398 18.3381 1.125 16.0059 1.125C13.6736 1.125 11.4827 2.07398 9.9944 3.72778L9.64698 4.11328L10.5125 7.1333C9.83326 7.46875 9.18092 7.86866 8.56251 8.33155C6.47267 9.89405 4.89699 12.1209 4.1255 14.6006L5.9153 15.1572C6.76686 12.4182 8.63673 10.2334 11.0366 8.96192L11.6025 10.9375C10.8652 11.3787 10.1907 11.9314 9.60719 12.5845L11.0046 13.8333C11.3469 13.4502 11.7295 13.1111 12.1423 12.8211L12.7166 14.8242C12.0542 15.4514 11.5701 16.2654 11.3508 17.1807L9.3296 17.6812C9.39894 16.9072 9.60084 16.1611 9.93263 15.4551L8.23561 14.6587C7.71974 15.7581 7.44801 16.9326 7.42799 18.1516L0.538102 19.8572L0.376725 20.3508C-0.315413 22.4656 -0.0453937 24.8379 1.1172 26.8601C2.2798 28.8818 4.19411 30.3089 6.36964 30.7749L6.87745 30.8836L9.06739 28.6253C11.1072 29.9971 13.5193 30.7393 16.0059 30.7393C16.8643 30.7393 17.7214 30.6519 18.5542 30.4783L18.1719 28.6433C17.4646 28.7908 16.7363 28.865 16.0059 28.865C13.9629 28.865 12.0354 28.2754 10.4011 27.2488L11.8193 25.7861C13.0584 26.4822 14.4866 26.8789 16.0059 26.8789V25.0047C14.9976 25.0047 14.041 24.781 13.1826 24.3799L14.6309 22.8855C15.0662 23.0166 15.5278 23.0872 16.0059 23.0872C16.4795 23.0872 16.9368 23.0186 17.3692 22.8892L25.1006 30.908L25.6084 30.8006C27.7852 30.3408 29.7039 28.9187 30.8716 26.9002C32.0398 24.8816 32.3159 22.51 31.6299 20.3933ZM19.0823 21.9651C19.9238 21.2581 20.5198 20.2671 20.7202 19.1399L29.9812 21.4585C30.3191 22.9429 30.0618 24.5574 29.2495 25.9617C28.4368 27.3657 27.166 28.3933 25.7102 28.8401L19.0823 21.9651ZM11.742 4.62134C12.8577 3.58545 14.384 2.99927 16.0059 2.99927C17.6284 2.99927 19.1548 3.58545 20.2698 4.62134L17.6397 13.7991C17.1299 13.6128 16.5794 13.5115 16.0059 13.5115C15.4324 13.5115 14.8818 13.6128 14.3721 13.7991L11.742 4.62134ZM6.27345 28.8137C4.81886 28.3633 3.55055 27.3318 2.7422 25.9255C1.93385 24.5193 1.68019 22.9043 2.02248 21.4209L11.2903 19.127C11.4876 20.2551 12.0806 21.2481 12.9209 21.957L6.27345 28.8137ZM13.0925 18.2998C13.0925 16.6929 14.3997 15.3857 16.0059 15.3857C17.6128 15.3857 18.9197 16.6929 18.9197 18.2998C18.9197 19.906 17.6128 21.2129 16.0059 21.2129C14.3997 21.2131 13.0925 19.906 13.0925 18.2998Z" fill="black"/>
</g>
<defs>
<clipPath id="clip0">
<rect width="32" height="32" fill="white"/>
</clipPath>
</defs>
</svg>
