<svg width="22" height="30" viewBox="0 0 22 30" fill="none" xmlns="http://www.w3.org/2000/svg">
<path d="M21.373 17.5925L21.3536 17.3263C21.0419 13.2692 19.1529 10.7259 17.4863 8.48257C15.9432 6.4053 14.6104 4.61146 14.6104 1.96464C14.6104 1.7521 14.4914 1.55784 14.3026 1.46039C14.1133 1.36241 13.8858 1.37846 13.7137 1.50359C11.2109 3.29467 9.12255 6.31343 8.39306 9.19378C7.88663 11.1991 7.81963 13.4535 7.81022 14.9424C5.49884 14.4486 4.97525 10.991 4.96972 10.9534C4.94369 10.774 4.83412 10.6179 4.67472 10.5327C4.51367 10.4486 4.32435 10.4425 4.16106 10.5233C4.03986 10.5819 1.18603 12.0321 1.01998 17.8227C1.00834 18.0153 1.00781 18.2079 1.00781 18.4011C1.00781 24.0262 5.5846 28.603 11.2098 28.603C16.8349 28.603 21.4117 24.0262 21.4117 18.4011C21.4117 18.1188 21.3923 17.8554 21.373 17.5925ZM11.2098 27.4695C9.33451 27.4695 7.8091 25.8445 7.8091 23.8469C7.8091 23.7788 7.80857 23.7102 7.81351 23.6261C7.8362 22.7837 7.99619 22.2086 8.17165 21.8261C8.50045 22.5324 9.08876 23.1816 10.043 23.1816C10.3563 23.1816 10.6098 22.9281 10.6098 22.6148C10.6098 21.8078 10.6264 20.8769 10.8273 20.0366C11.0061 19.2911 11.4334 18.499 11.9747 17.8636C12.2155 18.6883 12.6849 19.3558 13.1432 20.0073C13.7991 20.9394 14.4771 21.903 14.5961 23.5463C14.6033 23.6437 14.6105 23.7417 14.6105 23.8468C14.6104 25.8445 13.085 27.4695 11.2098 27.4695ZM14.7917 26.7289C15.38 25.9267 15.744 24.9349 15.744 23.8469C15.744 23.7135 15.7357 23.5895 15.7191 23.3576C15.5846 21.5073 14.7803 20.3638 14.0702 19.3548C13.4653 18.4958 12.9433 17.7536 12.9433 16.7008C12.9433 16.4855 12.8216 16.289 12.6289 16.1933C12.4374 16.0969 12.2061 16.1186 12.035 16.2486C10.948 17.07 10.0414 18.4526 9.72478 19.7727C9.56315 20.4497 9.50672 21.1819 9.48679 21.7841C9.0938 21.3612 8.97202 20.5775 8.97096 20.567C8.94551 20.3849 8.83371 20.226 8.67042 20.1414C8.50826 20.0573 8.31399 20.055 8.15071 20.1391C8.00788 20.2122 6.75315 20.9317 6.68121 23.5785C6.67621 23.6682 6.67568 23.7578 6.67568 23.847C6.67568 24.935 7.03966 25.9267 7.62797 26.729C4.40458 25.3371 2.1415 22.1295 2.1415 18.4012C2.1415 18.2313 2.14097 18.0619 2.15255 17.8731C2.24995 14.4758 3.33704 12.791 4.04661 12.0477C4.5414 13.8188 5.83769 16.1341 8.376 16.1341C8.68929 16.1341 8.9428 15.8806 8.9428 15.5673C8.9428 13.6705 8.98541 11.4786 9.49242 9.47168C10.068 7.19792 11.6449 4.74265 13.5484 3.08053C13.8644 5.50817 15.1867 7.2882 16.5766 9.15839C18.2287 11.3823 19.9368 13.682 20.2229 17.406L20.2423 17.6772C20.26 17.913 20.2783 18.1482 20.2783 18.4011C20.2782 22.1294 18.0151 25.3371 14.7917 26.7289Z" fill="white" stroke="white"/>
</svg>
