<svg width="25" height="28" viewBox="0 0 25 28" fill="none" xmlns="http://www.w3.org/2000/svg">
<path fill-rule="evenodd" clip-rule="evenodd" d="M14.3304 2.44922C14.3304 1.31571 13.4115 0.39682 12.278 0.39682C11.1445 0.39682 10.2256 1.31571 10.2256 2.44922V15.8583C10.2256 16.9918 11.1445 17.9107 12.278 17.9107C13.4115 17.9107 14.3304 16.9918 14.3304 15.8583V2.44922ZM6.40185 10.5672C7.15977 9.72432 7.09091 8.42664 6.24805 7.66872C5.40519 6.9108 4.10751 6.97966 3.34959 7.82252C1.43838 9.94791 0.264648 12.7712 0.264648 15.8583C0.264648 22.4768 5.62858 27.8581 12.2644 27.8581C18.8828 27.8581 24.2641 22.4941 24.2641 15.8583C24.2641 12.7712 23.0904 9.94791 21.1792 7.82252C20.4212 6.97966 19.1236 6.9108 18.2807 7.66872C17.4378 8.42664 17.369 9.72432 18.1269 10.5672C19.3901 11.9719 20.1593 13.8281 20.1593 15.8583C20.1593 20.2234 16.6195 23.7532 12.2644 23.7532C7.89928 23.7532 4.36946 20.2134 4.36946 15.8583C4.36946 13.8281 5.13867 11.9719 6.40185 10.5672Z" fill="white"/>
</svg>
